<mxfile host="app.diagrams.net" modified="2023-02-05T02:26:43.269Z" agent="5.0 (Windows)" etag="tJ1XVOlEO1RF7OAcJETa" version="20.8.16" type="github">
  <diagram id="UqwzHH5OhLbGryTZ87G5" name="第 1 页">
    <mxGraphModel dx="791" dy="792" grid="1" gridSize="10" guides="1" tooltips="1" connect="1" arrows="1" fold="1" page="1" pageScale="1" pageWidth="827" pageHeight="1169" math="0" shadow="0">
      <root>
        <mxCell id="0" />
        <mxCell id="1" parent="0" />
        <mxCell id="57MqOVcBMNkXq749Byp7-1" value="锁对象为索引" style="rounded=1;whiteSpace=wrap;html=1;strokeWidth=2;fillWeight=4;hachureGap=8;hachureAngle=45;fillColor=#dae8fc;sketch=1;glass=0;strokeColor=#6c8ebf;fontSize=24;fontStyle=1;fontFamily=Helvetica;fontColor=default;" parent="1" vertex="1">
          <mxGeometry x="10" y="30" width="120" height="60" as="geometry" />
        </mxCell>
        <mxCell id="57MqOVcBMNkXq749Byp7-16" value="" style="edgeStyle=orthogonalEdgeStyle;rounded=0;orthogonalLoop=1;jettySize=auto;html=1;fontFamily=Helvetica;fontSize=24;fontColor=default;" parent="1" source="57MqOVcBMNkXq749Byp7-10" target="57MqOVcBMNkXq749Byp7-15" edge="1">
          <mxGeometry relative="1" as="geometry" />
        </mxCell>
        <mxCell id="57MqOVcBMNkXq749Byp7-10" value="主键索引等值查询" style="whiteSpace=wrap;html=1;rounded=1;glass=0;sketch=1;fillWeight=4;hachureGap=8;hachureAngle=45;strokeColor=#6c8ebf;strokeWidth=2;fontFamily=Helvetica;fontSize=24;fontColor=default;fillColor=#dae8fc;" parent="1" vertex="1">
          <mxGeometry x="250" y="150" width="120" height="60" as="geometry" />
        </mxCell>
        <mxCell id="57MqOVcBMNkXq749Byp7-14" style="edgeStyle=orthogonalEdgeStyle;rounded=0;orthogonalLoop=1;jettySize=auto;html=1;entryX=0;entryY=0.5;entryDx=0;entryDy=0;fontFamily=Helvetica;fontSize=24;fontColor=default;" parent="1" source="57MqOVcBMNkXq749Byp7-11" target="57MqOVcBMNkXq749Byp7-10" edge="1">
          <mxGeometry relative="1" as="geometry" />
        </mxCell>
        <mxCell id="57MqOVcBMNkXq749Byp7-29" style="edgeStyle=orthogonalEdgeStyle;rounded=0;orthogonalLoop=1;jettySize=auto;html=1;entryX=0;entryY=0.5;entryDx=0;entryDy=0;fontFamily=Helvetica;fontSize=24;fontColor=default;" parent="1" source="57MqOVcBMNkXq749Byp7-11" target="57MqOVcBMNkXq749Byp7-28" edge="1">
          <mxGeometry relative="1" as="geometry" />
        </mxCell>
        <mxCell id="57MqOVcBMNkXq749Byp7-78" style="edgeStyle=orthogonalEdgeStyle;rounded=0;orthogonalLoop=1;jettySize=auto;html=1;entryX=0;entryY=0.5;entryDx=0;entryDy=0;fontFamily=Helvetica;fontSize=24;fontColor=default;" parent="1" source="57MqOVcBMNkXq749Byp7-11" target="57MqOVcBMNkXq749Byp7-75" edge="1">
          <mxGeometry relative="1" as="geometry" />
        </mxCell>
        <mxCell id="57MqOVcBMNkXq749Byp7-97" style="edgeStyle=orthogonalEdgeStyle;rounded=0;orthogonalLoop=1;jettySize=auto;html=1;entryX=0;entryY=0.5;entryDx=0;entryDy=0;fontFamily=Helvetica;fontSize=24;fontColor=default;" parent="1" source="57MqOVcBMNkXq749Byp7-11" target="57MqOVcBMNkXq749Byp7-77" edge="1">
          <mxGeometry relative="1" as="geometry" />
        </mxCell>
        <mxCell id="57MqOVcBMNkXq749Byp7-11" value="默认加Next-Key" style="rounded=1;whiteSpace=wrap;html=1;strokeWidth=2;fillWeight=4;hachureGap=8;hachureAngle=45;fillColor=#dae8fc;sketch=1;glass=0;strokeColor=#6c8ebf;fontSize=24;fontStyle=1;fontFamily=Helvetica;fontColor=default;" parent="1" vertex="1">
          <mxGeometry x="10" y="150" width="120" height="60" as="geometry" />
        </mxCell>
        <mxCell id="57MqOVcBMNkXq749Byp7-13" value="锁的退化" style="text;html=1;align=center;verticalAlign=middle;resizable=0;points=[];autosize=1;strokeColor=none;fillColor=none;fontSize=24;fontFamily=Helvetica;fontColor=default;" parent="1" vertex="1">
          <mxGeometry x="130" y="130" width="120" height="40" as="geometry" />
        </mxCell>
        <mxCell id="57MqOVcBMNkXq749Byp7-18" value="" style="edgeStyle=orthogonalEdgeStyle;rounded=0;orthogonalLoop=1;jettySize=auto;html=1;fontFamily=Helvetica;fontSize=24;fontColor=default;" parent="1" source="57MqOVcBMNkXq749Byp7-15" target="57MqOVcBMNkXq749Byp7-17" edge="1">
          <mxGeometry relative="1" as="geometry">
            <Array as="points">
              <mxPoint x="600" y="180" />
              <mxPoint x="600" y="90" />
            </Array>
          </mxGeometry>
        </mxCell>
        <mxCell id="57MqOVcBMNkXq749Byp7-26" style="edgeStyle=orthogonalEdgeStyle;rounded=0;orthogonalLoop=1;jettySize=auto;html=1;entryX=0;entryY=0.5;entryDx=0;entryDy=0;fontFamily=Helvetica;fontSize=24;fontColor=default;" parent="1" source="57MqOVcBMNkXq749Byp7-15" target="57MqOVcBMNkXq749Byp7-25" edge="1">
          <mxGeometry relative="1" as="geometry">
            <Array as="points">
              <mxPoint x="600" y="180" />
              <mxPoint x="600" y="280" />
            </Array>
          </mxGeometry>
        </mxCell>
        <mxCell id="57MqOVcBMNkXq749Byp7-15" value="值是否存在" style="rhombus;whiteSpace=wrap;html=1;fontSize=24;fillColor=#dae8fc;strokeColor=#6c8ebf;rounded=1;glass=0;sketch=1;fillWeight=4;hachureGap=8;hachureAngle=45;strokeWidth=2;" parent="1" vertex="1">
          <mxGeometry x="470" y="140" width="110" height="80" as="geometry" />
        </mxCell>
        <mxCell id="57MqOVcBMNkXq749Byp7-17" value="记录锁" style="whiteSpace=wrap;html=1;fontSize=24;fillColor=#dae8fc;strokeColor=#6c8ebf;rounded=1;glass=0;sketch=1;fillWeight=4;hachureGap=8;hachureAngle=45;strokeWidth=2;" parent="1" vertex="1">
          <mxGeometry x="660" y="60" width="120" height="60" as="geometry" />
        </mxCell>
        <mxCell id="57MqOVcBMNkXq749Byp7-20" value="yes" style="text;html=1;align=center;verticalAlign=middle;resizable=0;points=[];autosize=1;strokeColor=none;fillColor=none;fontSize=24;fontFamily=Helvetica;fontColor=default;" parent="1" vertex="1">
          <mxGeometry x="550" y="100" width="60" height="40" as="geometry" />
        </mxCell>
        <mxCell id="57MqOVcBMNkXq749Byp7-25" value="间隙锁" style="whiteSpace=wrap;html=1;rounded=1;glass=0;sketch=1;fillWeight=4;hachureGap=8;hachureAngle=45;strokeColor=#6c8ebf;strokeWidth=2;fontFamily=Helvetica;fontSize=24;fontColor=default;fillColor=#dae8fc;" parent="1" vertex="1">
          <mxGeometry x="660" y="250" width="120" height="60" as="geometry" />
        </mxCell>
        <mxCell id="57MqOVcBMNkXq749Byp7-27" value="no" style="text;html=1;align=center;verticalAlign=middle;resizable=0;points=[];autosize=1;strokeColor=none;fillColor=none;fontSize=24;fontFamily=Helvetica;fontColor=default;" parent="1" vertex="1">
          <mxGeometry x="550" y="210" width="50" height="40" as="geometry" />
        </mxCell>
        <mxCell id="57MqOVcBMNkXq749Byp7-43" style="edgeStyle=orthogonalEdgeStyle;rounded=0;orthogonalLoop=1;jettySize=auto;html=1;entryX=0;entryY=0.5;entryDx=0;entryDy=0;fontFamily=Helvetica;fontSize=24;fontColor=default;" parent="1" source="57MqOVcBMNkXq749Byp7-28" target="57MqOVcBMNkXq749Byp7-41" edge="1">
          <mxGeometry relative="1" as="geometry" />
        </mxCell>
        <mxCell id="57MqOVcBMNkXq749Byp7-28" value="主键索引范围查询" style="whiteSpace=wrap;html=1;rounded=1;glass=0;sketch=1;fillWeight=4;hachureGap=8;hachureAngle=45;strokeColor=#6c8ebf;strokeWidth=2;fontFamily=Helvetica;fontSize=24;fontColor=default;fillColor=#dae8fc;" parent="1" vertex="1">
          <mxGeometry x="250" y="410" width="120" height="60" as="geometry" />
        </mxCell>
        <mxCell id="57MqOVcBMNkXq749Byp7-52" style="edgeStyle=orthogonalEdgeStyle;rounded=0;orthogonalLoop=1;jettySize=auto;html=1;exitX=1;exitY=0.5;exitDx=0;exitDy=0;fontFamily=Helvetica;fontSize=24;fontColor=default;" parent="1" source="57MqOVcBMNkXq749Byp7-41" target="57MqOVcBMNkXq749Byp7-47" edge="1">
          <mxGeometry relative="1" as="geometry" />
        </mxCell>
        <mxCell id="57MqOVcBMNkXq749Byp7-54" style="edgeStyle=orthogonalEdgeStyle;rounded=0;orthogonalLoop=1;jettySize=auto;html=1;entryX=0;entryY=0.5;entryDx=0;entryDy=0;fontFamily=Helvetica;fontSize=24;fontColor=default;" parent="1" source="57MqOVcBMNkXq749Byp7-41" target="57MqOVcBMNkXq749Byp7-53" edge="1">
          <mxGeometry relative="1" as="geometry">
            <Array as="points">
              <mxPoint x="640" y="440" />
              <mxPoint x="640" y="520" />
              <mxPoint x="720" y="520" />
            </Array>
          </mxGeometry>
        </mxCell>
        <mxCell id="57MqOVcBMNkXq749Byp7-41" value="next-key" style="whiteSpace=wrap;html=1;rounded=1;glass=0;sketch=1;fillWeight=4;hachureGap=8;hachureAngle=45;strokeColor=#6c8ebf;strokeWidth=2;fontFamily=Helvetica;fontSize=24;fontColor=default;fillColor=#dae8fc;" parent="1" vertex="1">
          <mxGeometry x="440" y="410" width="120" height="60" as="geometry" />
        </mxCell>
        <mxCell id="57MqOVcBMNkXq749Byp7-44" value="对扫描的值加" style="text;html=1;align=center;verticalAlign=middle;resizable=0;points=[];autosize=1;strokeColor=none;fillColor=none;fontSize=24;fontFamily=Helvetica;fontColor=default;" parent="1" vertex="1">
          <mxGeometry x="329" y="360" width="170" height="40" as="geometry" />
        </mxCell>
        <mxCell id="57MqOVcBMNkXq749Byp7-62" style="edgeStyle=orthogonalEdgeStyle;rounded=0;orthogonalLoop=1;jettySize=auto;html=1;exitX=1;exitY=0.5;exitDx=0;exitDy=0;fontFamily=Helvetica;fontSize=24;fontColor=default;" parent="1" source="57MqOVcBMNkXq749Byp7-47" target="57MqOVcBMNkXq749Byp7-59" edge="1">
          <mxGeometry relative="1" as="geometry" />
        </mxCell>
        <mxCell id="57MqOVcBMNkXq749Byp7-47" value="大于等于" style="whiteSpace=wrap;html=1;rounded=1;glass=0;sketch=1;fillWeight=4;hachureGap=8;hachureAngle=45;strokeColor=#6c8ebf;strokeWidth=2;fontFamily=Helvetica;fontSize=24;fontColor=default;fillColor=#dae8fc;" parent="1" vertex="1">
          <mxGeometry x="720" y="350" width="120" height="60" as="geometry" />
        </mxCell>
        <mxCell id="57MqOVcBMNkXq749Byp7-51" value="退化" style="text;html=1;align=center;verticalAlign=middle;resizable=0;points=[];autosize=1;strokeColor=none;fillColor=none;fontSize=24;fontFamily=Helvetica;fontColor=default;rounded=1;glass=0;sketch=1;fillWeight=4;hachureGap=8;hachureAngle=45;strokeWidth=2;" parent="1" vertex="1">
          <mxGeometry x="560" y="400" width="70" height="40" as="geometry" />
        </mxCell>
        <mxCell id="57MqOVcBMNkXq749Byp7-63" style="edgeStyle=orthogonalEdgeStyle;rounded=0;orthogonalLoop=1;jettySize=auto;html=1;fontFamily=Helvetica;fontSize=24;fontColor=default;" parent="1" source="57MqOVcBMNkXq749Byp7-53" edge="1">
          <mxGeometry relative="1" as="geometry">
            <mxPoint x="920" y="510" as="targetPoint" />
            <Array as="points">
              <mxPoint x="920" y="520" />
            </Array>
          </mxGeometry>
        </mxCell>
        <mxCell id="57MqOVcBMNkXq749Byp7-53" value="小于/小于等于" style="whiteSpace=wrap;html=1;rounded=1;glass=0;sketch=1;fillWeight=4;hachureGap=8;hachureAngle=45;strokeColor=#6c8ebf;strokeWidth=2;fontFamily=Helvetica;fontSize=24;fontColor=default;fillColor=#dae8fc;" parent="1" vertex="1">
          <mxGeometry x="720" y="490" width="120" height="60" as="geometry" />
        </mxCell>
        <mxCell id="57MqOVcBMNkXq749Byp7-59" value="等值的记录退化成记录锁" style="whiteSpace=wrap;html=1;rounded=1;glass=0;sketch=1;fillWeight=4;hachureGap=8;hachureAngle=45;strokeColor=#6c8ebf;strokeWidth=2;fontFamily=Helvetica;fontSize=24;fontColor=default;fillColor=#dae8fc;" parent="1" vertex="1">
          <mxGeometry x="990" y="355" width="320" height="50" as="geometry" />
        </mxCell>
        <mxCell id="57MqOVcBMNkXq749Byp7-60" value="存在等值" style="text;whiteSpace=wrap;html=1;fontSize=24;fontFamily=Helvetica;fontColor=default;" parent="1" vertex="1">
          <mxGeometry x="870" y="330" width="130" height="50" as="geometry" />
        </mxCell>
        <mxCell id="QxykXLR87TMKVdndipIA-7" style="edgeStyle=orthogonalEdgeStyle;rounded=0;orthogonalLoop=1;jettySize=auto;html=1;entryX=0;entryY=0.5;entryDx=0;entryDy=0;" edge="1" parent="1" source="57MqOVcBMNkXq749Byp7-64" target="QxykXLR87TMKVdndipIA-5">
          <mxGeometry relative="1" as="geometry">
            <Array as="points">
              <mxPoint x="1000" y="520" />
              <mxPoint x="1000" y="600" />
            </Array>
          </mxGeometry>
        </mxCell>
        <mxCell id="QxykXLR87TMKVdndipIA-8" style="edgeStyle=orthogonalEdgeStyle;rounded=0;orthogonalLoop=1;jettySize=auto;html=1;entryX=0;entryY=0.5;entryDx=0;entryDy=0;" edge="1" parent="1" source="57MqOVcBMNkXq749Byp7-64" target="57MqOVcBMNkXq749Byp7-70">
          <mxGeometry relative="1" as="geometry">
            <Array as="points">
              <mxPoint x="990" y="520" />
              <mxPoint x="990" y="520" />
            </Array>
          </mxGeometry>
        </mxCell>
        <mxCell id="QxykXLR87TMKVdndipIA-9" style="edgeStyle=orthogonalEdgeStyle;rounded=0;orthogonalLoop=1;jettySize=auto;html=1;entryX=0;entryY=0.5;entryDx=0;entryDy=0;" edge="1" parent="1" source="57MqOVcBMNkXq749Byp7-64" target="57MqOVcBMNkXq749Byp7-66">
          <mxGeometry relative="1" as="geometry">
            <Array as="points">
              <mxPoint x="1000" y="520" />
              <mxPoint x="1000" y="445" />
            </Array>
          </mxGeometry>
        </mxCell>
        <mxCell id="57MqOVcBMNkXq749Byp7-64" value="记录是否存在" style="rhombus;whiteSpace=wrap;html=1;rounded=1;glass=0;sketch=1;fillWeight=4;hachureGap=8;hachureAngle=45;strokeColor=#6c8ebf;strokeWidth=2;fontFamily=Helvetica;fontSize=24;fontColor=default;fillColor=#dae8fc;" parent="1" vertex="1">
          <mxGeometry x="890" y="480" width="80" height="80" as="geometry" />
        </mxCell>
        <mxCell id="57MqOVcBMNkXq749Byp7-66" value="最后的记录退化间隙锁" style="whiteSpace=wrap;html=1;rounded=1;glass=0;sketch=1;fillWeight=4;hachureGap=8;hachureAngle=45;strokeColor=#6c8ebf;strokeWidth=2;fontFamily=Helvetica;fontSize=24;fontColor=default;fillColor=#dae8fc;" parent="1" vertex="1">
          <mxGeometry x="1070" y="420" width="260" height="50" as="geometry" />
        </mxCell>
        <mxCell id="57MqOVcBMNkXq749Byp7-69" value="no" style="text;html=1;align=center;verticalAlign=middle;resizable=0;points=[];autosize=1;strokeColor=none;fillColor=none;fontSize=24;fontFamily=Helvetica;fontColor=default;" parent="1" vertex="1">
          <mxGeometry x="950" y="430" width="50" height="40" as="geometry" />
        </mxCell>
        <mxCell id="QxykXLR87TMKVdndipIA-11" style="edgeStyle=orthogonalEdgeStyle;rounded=0;orthogonalLoop=1;jettySize=auto;html=1;entryX=0;entryY=0.5;entryDx=0;entryDy=0;" edge="1" parent="1" source="57MqOVcBMNkXq749Byp7-70" target="57MqOVcBMNkXq749Byp7-74">
          <mxGeometry relative="1" as="geometry" />
        </mxCell>
        <mxCell id="57MqOVcBMNkXq749Byp7-70" value="小于" style="whiteSpace=wrap;html=1;rounded=1;glass=0;sketch=1;fillWeight=4;hachureGap=8;hachureAngle=45;strokeColor=#6c8ebf;strokeWidth=2;fontFamily=Helvetica;fontSize=24;fontColor=default;fillColor=#dae8fc;" parent="1" vertex="1">
          <mxGeometry x="1070" y="490" width="120" height="60" as="geometry" />
        </mxCell>
        <mxCell id="57MqOVcBMNkXq749Byp7-72" value="yes" style="text;html=1;align=center;verticalAlign=middle;resizable=0;points=[];autosize=1;strokeColor=none;fillColor=none;fontSize=24;fontFamily=Helvetica;fontColor=default;" parent="1" vertex="1">
          <mxGeometry x="955" y="540" width="60" height="40" as="geometry" />
        </mxCell>
        <mxCell id="57MqOVcBMNkXq749Byp7-74" value="最后记录退化间隙锁" style="whiteSpace=wrap;html=1;rounded=1;glass=0;sketch=1;fillWeight=4;hachureGap=8;hachureAngle=45;strokeColor=#6c8ebf;strokeWidth=2;fontFamily=Helvetica;fontSize=24;fontColor=default;fillColor=#dae8fc;" parent="1" vertex="1">
          <mxGeometry x="1270" y="490" width="230" height="60" as="geometry" />
        </mxCell>
        <mxCell id="57MqOVcBMNkXq749Byp7-79" style="edgeStyle=orthogonalEdgeStyle;rounded=0;orthogonalLoop=1;jettySize=auto;html=1;fontFamily=Helvetica;fontSize=24;fontColor=default;entryX=0;entryY=0.5;entryDx=0;entryDy=0;" parent="1" source="57MqOVcBMNkXq749Byp7-75" target="57MqOVcBMNkXq749Byp7-80" edge="1">
          <mxGeometry relative="1" as="geometry">
            <mxPoint x="460" y="725" as="targetPoint" />
          </mxGeometry>
        </mxCell>
        <mxCell id="57MqOVcBMNkXq749Byp7-75" value="非唯一索引等值查询" style="whiteSpace=wrap;html=1;rounded=1;glass=0;sketch=1;fillWeight=4;hachureGap=8;hachureAngle=45;strokeColor=#6c8ebf;strokeWidth=2;fontFamily=Helvetica;fontSize=24;fontColor=default;fillColor=#dae8fc;" parent="1" vertex="1">
          <mxGeometry x="230" y="710" width="140" height="70" as="geometry" />
        </mxCell>
        <mxCell id="57MqOVcBMNkXq749Byp7-99" value="" style="edgeStyle=orthogonalEdgeStyle;rounded=0;orthogonalLoop=1;jettySize=auto;html=1;fontFamily=Helvetica;fontSize=24;fontColor=default;" parent="1" source="57MqOVcBMNkXq749Byp7-77" target="57MqOVcBMNkXq749Byp7-98" edge="1">
          <mxGeometry relative="1" as="geometry" />
        </mxCell>
        <mxCell id="57MqOVcBMNkXq749Byp7-100" value="对扫描的索引加next_key" style="edgeLabel;html=1;align=center;verticalAlign=middle;resizable=0;points=[];fontSize=24;fontFamily=Helvetica;fontColor=default;" parent="57MqOVcBMNkXq749Byp7-99" vertex="1" connectable="0">
          <mxGeometry x="-0.2677" relative="1" as="geometry">
            <mxPoint x="30" as="offset" />
          </mxGeometry>
        </mxCell>
        <mxCell id="57MqOVcBMNkXq749Byp7-77" value="非唯一索引范围查询" style="whiteSpace=wrap;html=1;rounded=1;glass=0;sketch=1;fillWeight=4;hachureGap=8;hachureAngle=45;strokeColor=#6c8ebf;strokeWidth=2;fontFamily=Helvetica;fontSize=24;fontColor=default;fillColor=#dae8fc;" parent="1" vertex="1">
          <mxGeometry x="230" y="870" width="140" height="70" as="geometry" />
        </mxCell>
        <mxCell id="57MqOVcBMNkXq749Byp7-87" style="edgeStyle=orthogonalEdgeStyle;rounded=0;orthogonalLoop=1;jettySize=auto;html=1;exitX=1;exitY=0.5;exitDx=0;exitDy=0;entryX=0;entryY=0.5;entryDx=0;entryDy=0;fontFamily=Helvetica;fontSize=24;fontColor=default;" parent="1" source="57MqOVcBMNkXq749Byp7-80" target="57MqOVcBMNkXq749Byp7-86" edge="1">
          <mxGeometry relative="1" as="geometry">
            <Array as="points">
              <mxPoint x="710" y="745" />
              <mxPoint x="710" y="814" />
              <mxPoint x="780" y="814" />
              <mxPoint x="780" y="812" />
            </Array>
          </mxGeometry>
        </mxCell>
        <mxCell id="QxykXLR87TMKVdndipIA-6" style="edgeStyle=orthogonalEdgeStyle;rounded=0;orthogonalLoop=1;jettySize=auto;html=1;entryX=0;entryY=0.5;entryDx=0;entryDy=0;" edge="1" parent="1" source="57MqOVcBMNkXq749Byp7-80" target="57MqOVcBMNkXq749Byp7-83">
          <mxGeometry relative="1" as="geometry" />
        </mxCell>
        <mxCell id="57MqOVcBMNkXq749Byp7-80" value="记录是否存在" style="rhombus;whiteSpace=wrap;html=1;rounded=1;glass=0;sketch=1;fillWeight=4;hachureGap=8;hachureAngle=45;strokeColor=#6c8ebf;strokeWidth=2;fontFamily=Helvetica;fontSize=24;fontColor=default;fillColor=#dae8fc;" parent="1" vertex="1">
          <mxGeometry x="530" y="686.25" width="110" height="117.5" as="geometry" />
        </mxCell>
        <mxCell id="57MqOVcBMNkXq749Byp7-93" value="" style="edgeStyle=orthogonalEdgeStyle;rounded=0;orthogonalLoop=1;jettySize=auto;html=1;fontFamily=Helvetica;fontSize=24;fontColor=default;" parent="1" source="57MqOVcBMNkXq749Byp7-83" target="57MqOVcBMNkXq749Byp7-92" edge="1">
          <mxGeometry relative="1" as="geometry" />
        </mxCell>
        <mxCell id="QxykXLR87TMKVdndipIA-10" style="edgeStyle=orthogonalEdgeStyle;rounded=0;orthogonalLoop=1;jettySize=auto;html=1;entryX=0;entryY=0.5;entryDx=0;entryDy=0;" edge="1" parent="1" source="57MqOVcBMNkXq749Byp7-83" target="57MqOVcBMNkXq749Byp7-94">
          <mxGeometry relative="1" as="geometry" />
        </mxCell>
        <mxCell id="57MqOVcBMNkXq749Byp7-83" value="扫描的记录加next-key" style="whiteSpace=wrap;html=1;rounded=1;glass=0;sketch=1;fillWeight=4;hachureGap=8;hachureAngle=45;strokeColor=#6c8ebf;strokeWidth=2;fontFamily=Helvetica;fontSize=24;fontColor=default;fillColor=#dae8fc;" parent="1" vertex="1">
          <mxGeometry x="780" y="673.75" width="260" height="60" as="geometry" />
        </mxCell>
        <mxCell id="57MqOVcBMNkXq749Byp7-85" value="yes" style="text;html=1;align=center;verticalAlign=middle;resizable=0;points=[];autosize=1;strokeColor=none;fillColor=none;fontSize=24;fontFamily=Helvetica;fontColor=default;" parent="1" vertex="1">
          <mxGeometry x="655" y="660" width="60" height="40" as="geometry" />
        </mxCell>
        <mxCell id="57MqOVcBMNkXq749Byp7-86" value="第一个不等的退化间隙锁" style="whiteSpace=wrap;html=1;rounded=1;glass=0;sketch=1;fillWeight=4;hachureGap=8;hachureAngle=45;strokeColor=#6c8ebf;strokeWidth=2;fontFamily=Helvetica;fontSize=24;fontColor=default;fillColor=#dae8fc;" parent="1" vertex="1">
          <mxGeometry x="790" y="783.75" width="280" height="56.25" as="geometry" />
        </mxCell>
        <mxCell id="57MqOVcBMNkXq749Byp7-88" value="no" style="text;html=1;align=center;verticalAlign=middle;resizable=0;points=[];autosize=1;strokeColor=none;fillColor=none;fontSize=24;fontFamily=Helvetica;fontColor=default;" parent="1" vertex="1">
          <mxGeometry x="665" y="783.75" width="50" height="40" as="geometry" />
        </mxCell>
        <mxCell id="57MqOVcBMNkXq749Byp7-90" value="&lt;div&gt;非唯一的二级索引等值查询&lt;/div&gt;&lt;div&gt;不同主键索引会一直扫描到&lt;/div&gt;&lt;div&gt;第一个不匹配的值才停止扫描&lt;/div&gt;" style="text;html=1;align=center;verticalAlign=middle;resizable=0;points=[];autosize=1;strokeColor=none;fillColor=none;fontSize=24;fontFamily=Helvetica;fontColor=default;" parent="1" vertex="1">
          <mxGeometry x="190" y="600" width="340" height="100" as="geometry" />
        </mxCell>
        <mxCell id="57MqOVcBMNkXq749Byp7-92" value="第一个不等的退化间隙锁" style="whiteSpace=wrap;html=1;fontSize=24;fillColor=#dae8fc;strokeColor=#6c8ebf;rounded=1;glass=0;sketch=1;fillWeight=4;hachureGap=8;hachureAngle=45;strokeWidth=2;" parent="1" vertex="1">
          <mxGeometry x="1130" y="650" width="290" height="60" as="geometry" />
        </mxCell>
        <mxCell id="57MqOVcBMNkXq749Byp7-94" value="&lt;div&gt;相等的主键索引加记录锁&lt;/div&gt;" style="whiteSpace=wrap;html=1;rounded=1;glass=0;sketch=1;fillWeight=4;hachureGap=8;hachureAngle=45;strokeColor=#6c8ebf;strokeWidth=2;fontFamily=Helvetica;fontSize=24;fontColor=default;fillColor=#dae8fc;" parent="1" vertex="1">
          <mxGeometry x="1130" y="733.75" width="300" height="50" as="geometry" />
        </mxCell>
        <mxCell id="57MqOVcBMNkXq749Byp7-98" value="没有退化情况发生" style="whiteSpace=wrap;html=1;fontSize=24;fillColor=#dae8fc;strokeColor=#6c8ebf;rounded=1;glass=0;sketch=1;fillWeight=4;hachureGap=8;hachureAngle=45;strokeWidth=2;" parent="1" vertex="1">
          <mxGeometry x="680" y="875" width="120" height="60" as="geometry" />
        </mxCell>
        <mxCell id="57MqOVcBMNkXq749Byp7-104" style="edgeStyle=orthogonalEdgeStyle;rounded=0;orthogonalLoop=1;jettySize=auto;html=1;fontFamily=Helvetica;fontSize=24;fontColor=default;entryX=0.5;entryY=0;entryDx=0;entryDy=0;" parent="1" source="57MqOVcBMNkXq749Byp7-101" target="57MqOVcBMNkXq749Byp7-105" edge="1">
          <mxGeometry relative="1" as="geometry">
            <mxPoint x="85" y="390" as="targetPoint" />
            <Array as="points" />
          </mxGeometry>
        </mxCell>
        <mxCell id="57MqOVcBMNkXq749Byp7-101" value="锁定读查询语句不走索引" style="whiteSpace=wrap;html=1;rounded=1;glass=0;sketch=1;fillWeight=4;hachureGap=8;hachureAngle=45;strokeColor=#6c8ebf;strokeWidth=2;fontFamily=Helvetica;fontSize=24;fontColor=default;fillColor=#dae8fc;" parent="1" vertex="1">
          <mxGeometry x="10" y="260" width="150" height="60" as="geometry" />
        </mxCell>
        <mxCell id="57MqOVcBMNkXq749Byp7-105" value="相当于每一个索引都加next_key,相当于锁全表" style="rounded=1;whiteSpace=wrap;html=1;strokeWidth=2;fillWeight=4;hachureGap=8;hachureAngle=45;fillColor=#dae8fc;sketch=1;glass=0;strokeColor=#6c8ebf;fontSize=24;fontStyle=1;fontFamily=Helvetica;fontColor=default;" parent="1" vertex="1">
          <mxGeometry x="17.5" y="405" width="135" height="210" as="geometry" />
        </mxCell>
        <mxCell id="57MqOVcBMNkXq749Byp7-108" style="edgeStyle=orthogonalEdgeStyle;rounded=0;orthogonalLoop=1;jettySize=auto;html=1;entryX=0.442;entryY=1.021;entryDx=0;entryDy=0;entryPerimeter=0;fontFamily=Helvetica;fontSize=24;fontColor=default;" parent="1" source="57MqOVcBMNkXq749Byp7-106" target="57MqOVcBMNkXq749Byp7-105" edge="1">
          <mxGeometry relative="1" as="geometry" />
        </mxCell>
        <mxCell id="57MqOVcBMNkXq749Byp7-106" value="&lt;div&gt;update delete&lt;/div&gt;&lt;div&gt;也是如此&lt;br&gt;&lt;/div&gt;" style="whiteSpace=wrap;html=1;rounded=1;glass=0;sketch=1;fillWeight=4;hachureGap=8;hachureAngle=45;strokeColor=#6c8ebf;strokeWidth=2;fontFamily=Helvetica;fontSize=24;fontColor=default;fillColor=#dae8fc;" parent="1" vertex="1">
          <mxGeometry x="17.5" y="663.75" width="120" height="120" as="geometry" />
        </mxCell>
        <mxCell id="QxykXLR87TMKVdndipIA-12" style="edgeStyle=orthogonalEdgeStyle;rounded=0;orthogonalLoop=1;jettySize=auto;html=1;" edge="1" parent="1" source="QxykXLR87TMKVdndipIA-5">
          <mxGeometry relative="1" as="geometry">
            <mxPoint x="1260" y="600" as="targetPoint" />
          </mxGeometry>
        </mxCell>
        <mxCell id="QxykXLR87TMKVdndipIA-5" value="小于等于" style="whiteSpace=wrap;html=1;rounded=1;glass=0;sketch=1;fillWeight=4;hachureGap=8;hachureAngle=45;strokeColor=#6c8ebf;strokeWidth=2;fontFamily=Helvetica;fontSize=24;fontColor=default;fillColor=#dae8fc;" vertex="1" parent="1">
          <mxGeometry x="1070" y="570" width="120" height="60" as="geometry" />
        </mxCell>
        <mxCell id="QxykXLR87TMKVdndipIA-13" value="&lt;font style=&quot;font-size: 24px;&quot;&gt;yes&lt;/font&gt;" style="text;html=1;align=center;verticalAlign=middle;resizable=0;points=[];autosize=1;strokeColor=none;fillColor=none;" vertex="1" parent="1">
          <mxGeometry x="1000" y="485" width="60" height="40" as="geometry" />
        </mxCell>
        <mxCell id="QxykXLR87TMKVdndipIA-14" value="不会退化" style="whiteSpace=wrap;html=1;rounded=1;glass=0;sketch=1;fillWeight=4;hachureGap=8;hachureAngle=45;strokeColor=#6c8ebf;strokeWidth=2;fontFamily=Helvetica;fontSize=24;fontColor=default;fillColor=#dae8fc;" vertex="1" parent="1">
          <mxGeometry x="1260" y="570" width="110" height="60" as="geometry" />
        </mxCell>
      </root>
    </mxGraphModel>
  </diagram>
</mxfile>
